<svg width="100%" height="100%" viewBox="49.5 41.8 759.4 348" fill="none" xmlns="http://www.w3.org/2000/svg">
<path d="M137.41 218.445C130.309 198.994 118.326 226.051 99.2424 206.191C80.1584 186.33 49.5352 206.191 49.5352 206.191V41.8267H808.902C810.233 97.8868 823.104 194.795 790.706 187.611C758.307 180.428 765.852 173.244 755.2 187.611C744.549 201.978 802.869 389.015 739.535 383.327C676.201 377.638 749.875 199.02 715.257 194.795C683.302 200.711 716.589 273.392 695.729 276.772C674.87 280.153 692.622 181.695 676.201 183.386C659.78 185.076 664.218 187.611 659.336 176.625C654.454 165.638 648.685 194.795 624.719 191.837C600.753 188.879 621.612 204.514 599.421 210.007C577.231 215.5 570.13 162.68 551.933 166.483C533.737 170.286 539.506 207.472 512.434 201.978C485.361 196.485 503.557 143.665 482.254 147.89C460.951 152.116 480.923 198.175 464.058 199.02C447.193 199.866 461.839 172.399 448.968 171.131C442.932 172.145 444.53 180.85 431.216 176.625C417.901 172.399 406.362 199.02 390.829 199.02C381.065 199.02 383.284 182.118 372.632 180.85C361.981 179.583 360.205 185.895 349.998 183.373C339.79 180.85 343.784 159.724 327.363 159.724C315.38 165.64 312.273 181.697 292.302 184.655C259.903 185.923 248.364 178.316 233.718 183.373C212.415 194.782 230.611 220.135 215.078 220.135C202.207 220.135 211.084 197.726 200.432 194.782C189.781 191.837 194.663 212.542 182.68 207.881C170.697 203.22 152.056 189.275 160.933 226.051C169.809 262.828 170.035 272.327 149.035 272.327C128.035 272.327 144.511 237.896 137.41 218.445Z" fill="#FBD169"/>
<g filter="url(#filter0_f_201_28)">
<rect x="80.6016" y="123.804" width="113.617" height="33.8051" fill="#EFA43D"/>
</g>
<g filter="url(#filter1_f_201_28)">
<path d="M101.906 158.032L257.241 110.282L205.315 144.932L157.383 187.189L101.906 172.399V158.032Z" fill="#EFA43D"/>
</g>
<g filter="url(#filter2_f_201_28)">
<path d="M227.059 65.5226L287.417 54.5034L267.24 62.4996L248.615 72.2511L227.059 68.8381V65.5226Z" fill="#FF9400"/>
</g>
<g filter="url(#filter3_f_201_28)">
<path d="M373.52 161.867L433.878 150.848L413.701 158.844L395.076 168.596L373.52 165.183V161.867Z" fill="#FF9400"/>
</g>
<g filter="url(#filter4_f_201_28)">
<path d="M604.301 171.164L630.486 158.454L636.699 177.892H625.857L604.301 174.479V171.164Z" fill="#FF9400"/>
</g>
<g filter="url(#filter5_f_201_28)">
<path d="M725.91 286.946L737.893 224.797L744.994 318.184L747.467 293.675L725.91 290.262V286.946Z" fill="#FF9400"/>
</g>
<g filter="url(#filter6_f_201_28)">
<path d="M485.363 111.55L640.698 63.7998L588.772 98.45L540.84 140.706L485.363 125.917V111.55Z" fill="#FF9E19"/>
</g>
<g filter="url(#filter7_f_201_28)">
<rect x="320.262" y="89.999" width="113.617" height="33.8051" fill="#EFA43D"/>
</g>
<g filter="url(#filter8_f_201_28)">
<rect x="680.637" y="103.521" width="113.617" height="33.8051" fill="#F79713"/>
</g>
<g filter="url(#filter9_f_201_28)">
<rect x="534.184" y="148.313" width="33.7299" height="18.5928" fill="#F79713"/>
</g>
<g filter="url(#filter10_f_201_28)">
<path d="M266.33 165.302L318.487 155.074C310.471 159.179 291.366 167.598 279.08 168.433C266.794 169.268 265.461 166.693 266.33 165.302Z" fill="white"/>
</g>
<g filter="url(#filter11_f_201_28)">
<path d="M510.705 134.056L515.903 197.944C513.26 189.65 493.907 162.023 504.962 145.337C509.397 138.642 509.444 132.969 510.705 134.056Z" fill="white"/>
</g>
<g filter="url(#filter12_f_201_28)">
<path d="M154.573 249.846L151.328 268.443C151.441 264.764 148.825 273.714 151.778 254.819C152.32 251.352 153.923 223.823 154.573 249.846Z" fill="white"/>
</g>
<g filter="url(#filter13_f_201_28)">
<path d="M75.2773 181.701C91.8894 190.694 138.935 200.664 194.22 168.596C144.516 182.369 94.2151 183.071 75.2773 181.701Z" fill="white"/>
</g>
<g filter="url(#filter14_f_201_28)">
<ellipse cx="734.341" cy="330.438" rx="3.1067" ry="2.95795" fill="white"/>
</g>
<g filter="url(#filter15_f_201_28)">
<path d="M752.035 173.827L738.535 211.327L746.035 96.3267L796.035 63.8267V173.827L781.081 167.827L752.035 173.827Z" fill="#EEA23C"/>
</g>
<g filter="url(#filter16_f_201_28)">
<ellipse cx="296.298" cy="136.481" rx="23.966" ry="12.6769" fill="#FFD062"/>
</g>
<defs>
<filter id="filter0_f_201_28" x="0.00156403" y="43.2042" width="274.817" height="195.005" filterUnits="userSpaceOnUse" color-interpolation-filters="sRGB">
<feFlood flood-opacity="0" result="BackgroundImageFix"/>
<feBlend mode="normal" in="SourceGraphic" in2="BackgroundImageFix" result="shape"/>
<feGaussianBlur stdDeviation="40.3" result="effect1_foregroundBlur_201_28"/>
</filter>
<filter id="filter1_f_201_28" x="38.1063" y="46.4822" width="282.936" height="204.507" filterUnits="userSpaceOnUse" color-interpolation-filters="sRGB">
<feFlood flood-opacity="0" result="BackgroundImageFix"/>
<feBlend mode="normal" in="SourceGraphic" in2="BackgroundImageFix" result="shape"/>
<feGaussianBlur stdDeviation="31.9" result="effect1_foregroundBlur_201_28"/>
</filter>
<filter id="filter2_f_201_28" x="196.259" y="23.7034" width="121.959" height="79.3476" filterUnits="userSpaceOnUse" color-interpolation-filters="sRGB">
<feFlood flood-opacity="0" result="BackgroundImageFix"/>
<feBlend mode="normal" in="SourceGraphic" in2="BackgroundImageFix" result="shape"/>
<feGaussianBlur stdDeviation="15.4" result="effect1_foregroundBlur_201_28"/>
</filter>
<filter id="filter3_f_201_28" x="342.72" y="120.048" width="121.959" height="79.3476" filterUnits="userSpaceOnUse" color-interpolation-filters="sRGB">
<feFlood flood-opacity="0" result="BackgroundImageFix"/>
<feBlend mode="normal" in="SourceGraphic" in2="BackgroundImageFix" result="shape"/>
<feGaussianBlur stdDeviation="15.4" result="effect1_foregroundBlur_201_28"/>
</filter>
<filter id="filter4_f_201_28" x="573.501" y="127.654" width="93.9984" height="81.038" filterUnits="userSpaceOnUse" color-interpolation-filters="sRGB">
<feFlood flood-opacity="0" result="BackgroundImageFix"/>
<feBlend mode="normal" in="SourceGraphic" in2="BackgroundImageFix" result="shape"/>
<feGaussianBlur stdDeviation="15.4" result="effect1_foregroundBlur_201_28"/>
</filter>
<filter id="filter5_f_201_28" x="695.11" y="193.997" width="83.1586" height="154.987" filterUnits="userSpaceOnUse" color-interpolation-filters="sRGB">
<feFlood flood-opacity="0" result="BackgroundImageFix"/>
<feBlend mode="normal" in="SourceGraphic" in2="BackgroundImageFix" result="shape"/>
<feGaussianBlur stdDeviation="15.4" result="effect1_foregroundBlur_201_28"/>
</filter>
<filter id="filter6_f_201_28" x="421.563" y="-0.00019455" width="282.936" height="204.507" filterUnits="userSpaceOnUse" color-interpolation-filters="sRGB">
<feFlood flood-opacity="0" result="BackgroundImageFix"/>
<feBlend mode="normal" in="SourceGraphic" in2="BackgroundImageFix" result="shape"/>
<feGaussianBlur stdDeviation="31.9" result="effect1_foregroundBlur_201_28"/>
</filter>
<filter id="filter7_f_201_28" x="239.662" y="9.39902" width="274.817" height="195.005" filterUnits="userSpaceOnUse" color-interpolation-filters="sRGB">
<feFlood flood-opacity="0" result="BackgroundImageFix"/>
<feBlend mode="normal" in="SourceGraphic" in2="BackgroundImageFix" result="shape"/>
<feGaussianBlur stdDeviation="40.3" result="effect1_foregroundBlur_201_28"/>
</filter>
<filter id="filter8_f_201_28" x="600.037" y="22.921" width="274.817" height="195.005" filterUnits="userSpaceOnUse" color-interpolation-filters="sRGB">
<feFlood flood-opacity="0" result="BackgroundImageFix"/>
<feBlend mode="normal" in="SourceGraphic" in2="BackgroundImageFix" result="shape"/>
<feGaussianBlur stdDeviation="40.3" result="effect1_foregroundBlur_201_28"/>
</filter>
<filter id="filter9_f_201_28" x="453.584" y="67.713" width="194.93" height="179.793" filterUnits="userSpaceOnUse" color-interpolation-filters="sRGB">
<feFlood flood-opacity="0" result="BackgroundImageFix"/>
<feBlend mode="normal" in="SourceGraphic" in2="BackgroundImageFix" result="shape"/>
<feGaussianBlur stdDeviation="40.3" result="effect1_foregroundBlur_201_28"/>
</filter>
<filter id="filter10_f_201_28" x="253.217" y="142.174" width="78.1711" height="39.322" filterUnits="userSpaceOnUse" color-interpolation-filters="sRGB">
<feFlood flood-opacity="0" result="BackgroundImageFix"/>
<feBlend mode="normal" in="SourceGraphic" in2="BackgroundImageFix" result="shape"/>
<feGaussianBlur stdDeviation="6.45" result="effect1_foregroundBlur_201_28"/>
</filter>
<filter id="filter11_f_201_28" x="488.678" y="121.022" width="40.1242" height="89.822" filterUnits="userSpaceOnUse" color-interpolation-filters="sRGB">
<feFlood flood-opacity="0" result="BackgroundImageFix"/>
<feBlend mode="normal" in="SourceGraphic" in2="BackgroundImageFix" result="shape"/>
<feGaussianBlur stdDeviation="6.45" result="effect1_foregroundBlur_201_28"/>
</filter>
<filter id="filter12_f_201_28" x="137.467" y="225.869" width="30.007" height="55.4743" filterUnits="userSpaceOnUse" color-interpolation-filters="sRGB">
<feFlood flood-opacity="0" result="BackgroundImageFix"/>
<feBlend mode="normal" in="SourceGraphic" in2="BackgroundImageFix" result="shape"/>
<feGaussianBlur stdDeviation="6.45" result="effect1_foregroundBlur_201_28"/>
</filter>
<filter id="filter13_f_201_28" x="47.6773" y="140.996" width="174.141" height="77.1731" filterUnits="userSpaceOnUse" color-interpolation-filters="sRGB">
<feFlood flood-opacity="0" result="BackgroundImageFix"/>
<feBlend mode="normal" in="SourceGraphic" in2="BackgroundImageFix" result="shape"/>
<feGaussianBlur stdDeviation="13.8" result="effect1_foregroundBlur_201_28"/>
</filter>
<filter id="filter14_f_201_28" x="723.834" y="320.08" width="21.0148" height="20.716" filterUnits="userSpaceOnUse" color-interpolation-filters="sRGB">
<feFlood flood-opacity="0" result="BackgroundImageFix"/>
<feBlend mode="normal" in="SourceGraphic" in2="BackgroundImageFix" result="shape"/>
<feGaussianBlur stdDeviation="3.7" result="effect1_foregroundBlur_201_28"/>
</filter>
<filter id="filter15_f_201_28" x="711.635" y="36.9267" width="111.3" height="201.3" filterUnits="userSpaceOnUse" color-interpolation-filters="sRGB">
<feFlood flood-opacity="0" result="BackgroundImageFix"/>
<feBlend mode="normal" in="SourceGraphic" in2="BackgroundImageFix" result="shape"/>
<feGaussianBlur stdDeviation="13.45" result="effect1_foregroundBlur_201_28"/>
</filter>
<filter id="filter16_f_201_28" x="255.732" y="107.204" width="81.1297" height="58.554" filterUnits="userSpaceOnUse" color-interpolation-filters="sRGB">
<feFlood flood-opacity="0" result="BackgroundImageFix"/>
<feBlend mode="normal" in="SourceGraphic" in2="BackgroundImageFix" result="shape"/>
<feGaussianBlur stdDeviation="8.3" result="effect1_foregroundBlur_201_28"/>
</filter>
</defs>
</svg>
