<svg width="1533" height="445" viewBox="0 0 1533 445" fill="none" xmlns="http://www.w3.org/2000/svg">
<path d="M62.7649 439.827C-13.189 445.33 105.155 317.915 45.2509 317.234C-14.653 316.553 3.52741 0 3.52741 0C3.52741 0 108.527 174 179.027 107C249.527 40 409.016 163 534.027 81.5C659.039 0 718.527 158.5 865.027 158.5C1011.53 158.5 1050.03 81.5 1240.53 81.5C1431.03 81.5 1496.25 127 1518.89 117C1541.53 107 1532.7 257.3 1518.89 281.138C1505.08 304.975 1450.71 263.43 1401.85 268.878C1352.99 274.327 1374.18 371.72 1338.26 376.487C1302.33 381.255 1322.57 274.327 1288.49 268.878C1254.41 263.43 1220.53 401.5 1190.8 292.035C1161.08 182.57 1182.03 268.878 1137.35 274.327C1092.67 279.776 1081.11 304.975 1029.52 308.38C977.928 311.786 925.398 263.43 899.576 251.852C873.755 240.274 876.519 274.327 845.202 268.878C813.884 263.43 814.772 228.695 792.671 233.463C770.569 238.23 785.281 265.473 757.65 260.025C730.019 254.576 741.078 243.679 709.727 247.765C678.376 251.852 703.259 313.829 659.039 313.148C614.819 312.467 645.198 228.695 620.332 224.609C595.465 220.523 570.549 256.619 553.055 240.955C535.561 225.29 532.149 42.7635 496.838 209.625C461.527 376.487 358.614 231.42 319.891 224.609C281.167 217.798 306.972 262.749 266.438 256.619C225.904 250.49 254.474 219.841 194.553 234.144C134.633 248.446 138.319 345.839 122.669 337.666C107.018 329.494 118.044 280.457 96.864 291.354C75.6837 302.251 109.766 436.421 62.7649 439.827Z" fill="#FBD068"/>
<g opacity="0.51" filter="url(#filter0_f_233_44)">
<path d="M58.2078 309.062L17.5996 283.386L22.1968 267.264L153.073 236.134L164.708 221.885H212.979L153.073 236.134L111.075 287.566L92.6864 267.264L58.2078 309.062Z" fill="#FFA500"/>
</g>
<g opacity="0.52" filter="url(#filter1_f_233_44)">
<ellipse cx="10.8737" cy="22.4163" rx="10.8737" ry="22.4163" transform="matrix(0.979084 0.203455 -0.355622 0.93463 58.207 385.645)" fill="white"/>
</g>
<g opacity="0.52" filter="url(#filter2_f_233_44)">
<ellipse cx="9.69709" cy="25.9639" rx="9.69709" ry="25.9639" transform="matrix(0.798886 0.601482 -0.809467 0.587165 173.91 212.35)" fill="white"/>
</g>
<g filter="url(#filter3_f_233_44)">
<path d="M72.4177 427.287C72.4177 428.869 61.7465 433.016 56.9036 433.016C52.0607 433.016 46.1111 427.437 46.1111 425.855C46.1111 424.272 40.7158 402.938 56.9045 425.855C77.1406 420.126 72.4177 425.705 72.4177 427.287Z" fill="#D07B24"/>
</g>
<g filter="url(#filter4_f_233_44)">
<path d="M285.922 222.227C285.922 225.508 277.118 239.592 268.992 239.592C263.755 239.592 247.998 228.707 247.998 225.426C247.998 222.145 257.66 213.543 262.897 213.543C268.133 213.543 338.067 207.602 285.922 222.227Z" fill="white"/>
</g>
<g filter="url(#filter5_f_233_44)">
<path d="M356.937 207.528L426.544 203.541L498.419 198.709L454.788 207.274L373.016 214.771L357.219 211.28L356.937 207.528Z" fill="#FFAA00"/>
</g>
<g filter="url(#filter6_f_233_44)">
<ellipse cx="12.9703" cy="30.179" rx="12.9703" ry="30.179" transform="matrix(0.999938 0.0111084 -0.0203371 0.999793 651.043 240.954)" fill="#FF9400"/>
</g>
<g filter="url(#filter7_f_233_44)">
<path d="M650.737 281.819C650.737 299.122 664.75 308.381 662.714 308.381C660.678 308.381 636.909 308.381 642.44 264.111C638.751 241.636 637.835 231.42 635.066 224.609C637.102 224.609 650.737 264.517 650.737 281.819Z" fill="white"/>
</g>
<g opacity="0.68" filter="url(#filter8_f_233_44)">
<path d="M1085.73 267.78C1085.73 271.542 1048.87 292.033 1025.39 289.575C1006.55 289.575 963.64 271.542 963.64 267.78C841.072 223.509 1006.56 219.16 1025.39 219.16C1056.73 215.755 1300.46 243.262 1085.73 267.78Z" fill="#FF9F1A"/>
</g>
<g opacity="0.65" filter="url(#filter9_f_233_44)">
<path d="M1103.24 267.311C1103.24 277.091 1078.36 289.105 1017.53 293.874C991.575 293.874 907.863 245.081 907.863 235.301C907.863 225.521 981.438 280.934 1007.4 280.934C1067.3 285.084 1103.24 257.531 1103.24 267.311Z" fill="white"/>
</g>
<g filter="url(#filter10_f_233_44)">
<path d="M1217.52 278.413C1218.27 278.062 1219.05 277.704 1219.84 277.341L1305.99 237.549L1341.01 347.882C1342.86 345.158 1347.83 327.45 1352.99 278.413C1358.16 229.376 1391.39 230.738 1407.37 237.549C1439.93 247.992 1503.77 270.785 1498.61 278.413C1492.16 287.948 1455.29 249.127 1388.94 255.938C1325.35 275.008 1368.66 384.66 1329.95 366.271C1321.66 362.866 1323.5 282.499 1305.99 258.662C1303.12 243.282 1248.8 264.079 1219.84 277.341L1217.52 278.413Z" fill="#FEB33A"/>
</g>
<g opacity="0.63" filter="url(#filter11_f_233_44)">
<path d="M1337.33 353.331L1310.6 245.722L1265.53 264L1227.03 307.018L1251.53 249.127L1315.21 230.738L1337.33 307.018L1356.68 235.506L1478.33 249.127L1370.51 245.722L1337.33 353.331Z" fill="white"/>
</g>
<g opacity="0.85" filter="url(#filter12_f_233_44)">
<path d="M843.307 242.203C851.279 251.059 880.918 242.451 878.327 243.725C875.736 244.999 854.982 281.758 833.095 248.092C825.122 239.236 805.869 222.793 818.677 229.519C821.268 228.245 835.335 233.346 843.307 242.203Z" fill="white"/>
</g>
<defs>
<filter id="filter0_f_233_44" x="-0.000391006" y="204.285" width="230.579" height="122.377" filterUnits="userSpaceOnUse" color-interpolation-filters="sRGB">
<feFlood flood-opacity="0" result="BackgroundImageFix"/>
<feBlend mode="normal" in="SourceGraphic" in2="BackgroundImageFix" result="shape"/>
<feGaussianBlur stdDeviation="8.8" result="effect1_foregroundBlur_233_44"/>
</filter>
<filter id="filter1_f_233_44" x="36.4801" y="376.638" width="48.8016" height="64.3387" filterUnits="userSpaceOnUse" color-interpolation-filters="sRGB">
<feFlood flood-opacity="0" result="BackgroundImageFix"/>
<feBlend mode="normal" in="SourceGraphic" in2="BackgroundImageFix" result="shape"/>
<feGaussianBlur stdDeviation="5.55" result="effect1_foregroundBlur_233_44"/>
</filter>
<filter id="filter2_f_233_44" x="127.134" y="206.001" width="67.0105" height="54.8543" filterUnits="userSpaceOnUse" color-interpolation-filters="sRGB">
<feFlood flood-opacity="0" result="BackgroundImageFix"/>
<feBlend mode="normal" in="SourceGraphic" in2="BackgroundImageFix" result="shape"/>
<feGaussianBlur stdDeviation="5.55" result="effect1_foregroundBlur_233_44"/>
</filter>
<filter id="filter3_f_233_44" x="34.048" y="404.109" width="50.0484" height="40.108" filterUnits="userSpaceOnUse" color-interpolation-filters="sRGB">
<feFlood flood-opacity="0" result="BackgroundImageFix"/>
<feBlend mode="normal" in="SourceGraphic" in2="BackgroundImageFix" result="shape"/>
<feGaussianBlur stdDeviation="5.6" result="effect1_foregroundBlur_233_44"/>
</filter>
<filter id="filter4_f_233_44" x="225.998" y="190.35" width="101.139" height="71.2432" filterUnits="userSpaceOnUse" color-interpolation-filters="sRGB">
<feFlood flood-opacity="0" result="BackgroundImageFix"/>
<feBlend mode="normal" in="SourceGraphic" in2="BackgroundImageFix" result="shape"/>
<feGaussianBlur stdDeviation="11" result="effect1_foregroundBlur_233_44"/>
</filter>
<filter id="filter5_f_233_44" x="341.637" y="183.409" width="172.08" height="46.6615" filterUnits="userSpaceOnUse" color-interpolation-filters="sRGB">
<feFlood flood-opacity="0" result="BackgroundImageFix"/>
<feBlend mode="normal" in="SourceGraphic" in2="BackgroundImageFix" result="shape"/>
<feGaussianBlur stdDeviation="7.65" result="effect1_foregroundBlur_233_44"/>
</filter>
<filter id="filter6_f_233_44" x="631.214" y="221.898" width="64.3688" height="98.7467" filterUnits="userSpaceOnUse" color-interpolation-filters="sRGB">
<feFlood flood-opacity="0" result="BackgroundImageFix"/>
<feBlend mode="normal" in="SourceGraphic" in2="BackgroundImageFix" result="shape"/>
<feGaussianBlur stdDeviation="9.6" result="effect1_foregroundBlur_233_44"/>
</filter>
<filter id="filter7_f_233_44" x="627.166" y="216.709" width="43.6516" height="99.5715" filterUnits="userSpaceOnUse" color-interpolation-filters="sRGB">
<feFlood flood-opacity="0" result="BackgroundImageFix"/>
<feBlend mode="normal" in="SourceGraphic" in2="BackgroundImageFix" result="shape"/>
<feGaussianBlur stdDeviation="3.95" result="effect1_foregroundBlur_233_44"/>
</filter>
<filter id="filter8_f_233_44" x="884.993" y="185.073" width="322.123" height="138.505" filterUnits="userSpaceOnUse" color-interpolation-filters="sRGB">
<feFlood flood-opacity="0" result="BackgroundImageFix"/>
<feBlend mode="normal" in="SourceGraphic" in2="BackgroundImageFix" result="shape"/>
<feGaussianBlur stdDeviation="16.9" result="effect1_foregroundBlur_233_44"/>
</filter>
<filter id="filter9_f_233_44" x="892.963" y="219.244" width="225.179" height="89.5305" filterUnits="userSpaceOnUse" color-interpolation-filters="sRGB">
<feFlood flood-opacity="0" result="BackgroundImageFix"/>
<feBlend mode="normal" in="SourceGraphic" in2="BackgroundImageFix" result="shape"/>
<feGaussianBlur stdDeviation="7.45" result="effect1_foregroundBlur_233_44"/>
</filter>
<filter id="filter10_f_233_44" x="1207.52" y="224.094" width="301.383" height="154.247" filterUnits="userSpaceOnUse" color-interpolation-filters="sRGB">
<feFlood flood-opacity="0" result="BackgroundImageFix"/>
<feBlend mode="normal" in="SourceGraphic" in2="BackgroundImageFix" result="shape"/>
<feGaussianBlur stdDeviation="5" result="effect1_foregroundBlur_233_44"/>
</filter>
<filter id="filter11_f_233_44" x="1210.43" y="214.138" width="284.505" height="155.793" filterUnits="userSpaceOnUse" color-interpolation-filters="sRGB">
<feFlood flood-opacity="0" result="BackgroundImageFix"/>
<feBlend mode="normal" in="SourceGraphic" in2="BackgroundImageFix" result="shape"/>
<feGaussianBlur stdDeviation="8.3" result="effect1_foregroundBlur_233_44"/>
</filter>
<filter id="filter12_f_233_44" x="804.495" y="218.043" width="83.8937" height="54.1105" filterUnits="userSpaceOnUse" color-interpolation-filters="sRGB">
<feFlood flood-opacity="0" result="BackgroundImageFix"/>
<feBlend mode="normal" in="SourceGraphic" in2="BackgroundImageFix" result="shape"/>
<feGaussianBlur stdDeviation="4.95" result="effect1_foregroundBlur_233_44"/>
</filter>
</defs>
</svg>
